<mxfile host="Electron" modified="2023-12-14T16:57:55.186Z" agent="Mozilla/5.0 (Windows NT 10.0; Win64; x64) AppleWebKit/537.36 (KHTML, like Gecko) draw.io/22.1.2 Chrome/114.0.5735.289 Electron/25.9.4 Safari/537.36" etag="TKGgimQXeY1NeEy4X4hY" version="22.1.2" type="device">
  <diagram name="Страница — 1" id="A7kKEhrcFEN7aYUmOPLR">
    <mxGraphModel dx="1863" dy="1782" grid="1" gridSize="10" guides="1" tooltips="1" connect="1" arrows="1" fold="1" page="1" pageScale="1" pageWidth="827" pageHeight="1169" math="0" shadow="0">
      <root>
        <mxCell id="0" />
        <mxCell id="1" parent="0" />
        <mxCell id="-R-RzRMhOyg6fwqKeyZH-1" value="Незарегистрированный &lt;br&gt;пользователь&amp;nbsp;" style="shape=umlActor;verticalLabelPosition=bottom;verticalAlign=top;html=1;outlineConnect=0;" parent="1" vertex="1">
          <mxGeometry x="20" y="-250" width="60" height="110" as="geometry" />
        </mxCell>
        <mxCell id="-R-RzRMhOyg6fwqKeyZH-2" value="Клиент" style="shape=umlActor;verticalLabelPosition=bottom;verticalAlign=top;html=1;outlineConnect=0;" parent="1" vertex="1">
          <mxGeometry x="-40" y="107.5" width="50" height="95" as="geometry" />
        </mxCell>
        <mxCell id="-R-RzRMhOyg6fwqKeyZH-3" value="Сотрудник" style="shape=umlActor;verticalLabelPosition=bottom;verticalAlign=top;html=1;outlineConnect=0;" parent="1" vertex="1">
          <mxGeometry x="1030" y="-170" width="50" height="90" as="geometry" />
        </mxCell>
        <mxCell id="-R-RzRMhOyg6fwqKeyZH-4" value="Администратор" style="shape=umlActor;verticalLabelPosition=bottom;verticalAlign=top;html=1;outlineConnect=0;" parent="1" vertex="1">
          <mxGeometry x="1030" y="190" width="50" height="100" as="geometry" />
        </mxCell>
        <mxCell id="-R-RzRMhOyg6fwqKeyZH-8" value="" style="swimlane;startSize=0;fontSize=14;" parent="1" vertex="1">
          <mxGeometry x="120" y="-350" width="890" height="1010" as="geometry">
            <mxRectangle x="70" y="-160" width="760" height="850" as="alternateBounds" />
          </mxGeometry>
        </mxCell>
        <mxCell id="-R-RzRMhOyg6fwqKeyZH-9" value="Система работы в программном обеспечении" style="text;html=1;strokeColor=none;fillColor=none;align=center;verticalAlign=middle;whiteSpace=wrap;rounded=0;fontSize=14;" parent="-R-RzRMhOyg6fwqKeyZH-8" vertex="1">
          <mxGeometry x="3" y="10" width="330" height="30" as="geometry" />
        </mxCell>
        <mxCell id="-R-RzRMhOyg6fwqKeyZH-39" value="Вход на сайт" style="ellipse;whiteSpace=wrap;html=1;fontSize=14;" parent="-R-RzRMhOyg6fwqKeyZH-8" vertex="1">
          <mxGeometry x="500" y="260" width="142" height="80" as="geometry" />
        </mxCell>
        <mxCell id="-R-RzRMhOyg6fwqKeyZH-40" value="Выход с сайта" style="ellipse;whiteSpace=wrap;html=1;fontSize=14;" parent="-R-RzRMhOyg6fwqKeyZH-8" vertex="1">
          <mxGeometry x="480" y="380" width="135" height="70" as="geometry" />
        </mxCell>
        <mxCell id="-R-RzRMhOyg6fwqKeyZH-47" value="Регистрация" style="ellipse;whiteSpace=wrap;html=1;" parent="-R-RzRMhOyg6fwqKeyZH-8" vertex="1">
          <mxGeometry x="40" y="60" width="130" height="60" as="geometry" />
        </mxCell>
        <mxCell id="-R-RzRMhOyg6fwqKeyZH-49" value="Создание Заявки на перевозку" style="ellipse;whiteSpace=wrap;html=1;" parent="-R-RzRMhOyg6fwqKeyZH-8" vertex="1">
          <mxGeometry x="100" y="505" width="140" height="70" as="geometry" />
        </mxCell>
        <mxCell id="-R-RzRMhOyg6fwqKeyZH-51" value="Добавление записей в базу данных" style="ellipse;whiteSpace=wrap;html=1;fontSize=14;" parent="-R-RzRMhOyg6fwqKeyZH-8" vertex="1">
          <mxGeometry x="600" y="550" width="130" height="70" as="geometry" />
        </mxCell>
        <mxCell id="-R-RzRMhOyg6fwqKeyZH-53" value="Добавление сотрудника&amp;nbsp;" style="ellipse;whiteSpace=wrap;html=1;fontSize=14;dashed=1;" parent="-R-RzRMhOyg6fwqKeyZH-8" vertex="1">
          <mxGeometry x="470" y="460" width="140" height="70" as="geometry" />
        </mxCell>
        <mxCell id="-R-RzRMhOyg6fwqKeyZH-54" value="Добавление машин" style="ellipse;whiteSpace=wrap;html=1;fontSize=14;dashed=1;" parent="-R-RzRMhOyg6fwqKeyZH-8" vertex="1">
          <mxGeometry x="330" y="495" width="140" height="80" as="geometry" />
        </mxCell>
        <mxCell id="-R-RzRMhOyg6fwqKeyZH-56" value="" style="endArrow=none;endFill=0;endSize=12;html=1;rounded=0;dashed=1;" parent="-R-RzRMhOyg6fwqKeyZH-8" source="-R-RzRMhOyg6fwqKeyZH-51" target="-R-RzRMhOyg6fwqKeyZH-54" edge="1">
          <mxGeometry width="160" relative="1" as="geometry">
            <mxPoint x="990" y="553" as="sourcePoint" />
            <mxPoint x="829" y="569" as="targetPoint" />
          </mxGeometry>
        </mxCell>
        <mxCell id="-R-RzRMhOyg6fwqKeyZH-57" value="" style="endArrow=none;endFill=0;endSize=12;html=1;rounded=0;dashed=1;" parent="-R-RzRMhOyg6fwqKeyZH-8" source="-R-RzRMhOyg6fwqKeyZH-51" target="-R-RzRMhOyg6fwqKeyZH-53" edge="1">
          <mxGeometry width="160" relative="1" as="geometry">
            <mxPoint x="725" y="603" as="sourcePoint" />
            <mxPoint x="659" y="648" as="targetPoint" />
          </mxGeometry>
        </mxCell>
        <mxCell id="-R-RzRMhOyg6fwqKeyZH-58" value="Добавление категорий грузов" style="ellipse;whiteSpace=wrap;html=1;fontSize=14;dashed=1;" parent="-R-RzRMhOyg6fwqKeyZH-8" vertex="1">
          <mxGeometry x="595" y="660" width="140" height="80" as="geometry" />
        </mxCell>
        <mxCell id="-R-RzRMhOyg6fwqKeyZH-59" value="" style="endArrow=none;endFill=0;endSize=12;html=1;rounded=0;dashed=1;" parent="-R-RzRMhOyg6fwqKeyZH-8" source="-R-RzRMhOyg6fwqKeyZH-51" target="-R-RzRMhOyg6fwqKeyZH-58" edge="1">
          <mxGeometry width="160" relative="1" as="geometry">
            <mxPoint x="707" y="591" as="sourcePoint" />
            <mxPoint x="663" y="603" as="targetPoint" />
          </mxGeometry>
        </mxCell>
        <mxCell id="-R-RzRMhOyg6fwqKeyZH-60" value="Добавление Пунктов выдачи" style="ellipse;whiteSpace=wrap;html=1;fontSize=14;dashed=1;" parent="-R-RzRMhOyg6fwqKeyZH-8" vertex="1">
          <mxGeometry x="450" y="630" width="145" height="80" as="geometry" />
        </mxCell>
        <mxCell id="-R-RzRMhOyg6fwqKeyZH-61" value="" style="endArrow=none;endFill=0;endSize=12;html=1;rounded=0;dashed=1;" parent="-R-RzRMhOyg6fwqKeyZH-8" source="-R-RzRMhOyg6fwqKeyZH-51" target="-R-RzRMhOyg6fwqKeyZH-60" edge="1">
          <mxGeometry width="160" relative="1" as="geometry">
            <mxPoint x="757" y="610" as="sourcePoint" />
            <mxPoint x="749" y="640" as="targetPoint" />
          </mxGeometry>
        </mxCell>
        <mxCell id="-R-RzRMhOyg6fwqKeyZH-62" value="Добавление Складов" style="ellipse;whiteSpace=wrap;html=1;fontSize=14;dashed=1;" parent="-R-RzRMhOyg6fwqKeyZH-8" vertex="1">
          <mxGeometry x="270" y="590" width="138.5" height="80" as="geometry" />
        </mxCell>
        <mxCell id="-R-RzRMhOyg6fwqKeyZH-63" value="" style="endArrow=none;endFill=0;endSize=12;html=1;rounded=0;dashed=1;" parent="-R-RzRMhOyg6fwqKeyZH-8" source="-R-RzRMhOyg6fwqKeyZH-51" target="-R-RzRMhOyg6fwqKeyZH-62" edge="1">
          <mxGeometry width="160" relative="1" as="geometry">
            <mxPoint x="660" y="599" as="sourcePoint" />
            <mxPoint x="494" y="596" as="targetPoint" />
          </mxGeometry>
        </mxCell>
        <mxCell id="-R-RzRMhOyg6fwqKeyZH-64" value="Редактирование записей в базе данных" style="ellipse;whiteSpace=wrap;html=1;fontSize=14;" parent="-R-RzRMhOyg6fwqKeyZH-8" vertex="1">
          <mxGeometry x="525" y="790" width="170" height="80" as="geometry" />
        </mxCell>
        <mxCell id="-R-RzRMhOyg6fwqKeyZH-66" value="Редактирование&amp;nbsp;&lt;br&gt;сотрудника&amp;nbsp;" style="ellipse;whiteSpace=wrap;html=1;fontSize=14;dashed=1;" parent="-R-RzRMhOyg6fwqKeyZH-8" vertex="1">
          <mxGeometry x="310" y="935" width="140" height="70" as="geometry" />
        </mxCell>
        <mxCell id="-R-RzRMhOyg6fwqKeyZH-67" value="Редактирование&amp;nbsp;&lt;br&gt;машин" style="ellipse;whiteSpace=wrap;html=1;fontSize=14;dashed=1;" parent="-R-RzRMhOyg6fwqKeyZH-8" vertex="1">
          <mxGeometry x="300" y="710" width="140" height="80" as="geometry" />
        </mxCell>
        <mxCell id="-R-RzRMhOyg6fwqKeyZH-68" value="" style="endArrow=none;endFill=0;endSize=12;html=1;rounded=0;dashed=1;" parent="-R-RzRMhOyg6fwqKeyZH-8" source="-R-RzRMhOyg6fwqKeyZH-64" target="-R-RzRMhOyg6fwqKeyZH-67" edge="1">
          <mxGeometry width="160" relative="1" as="geometry">
            <mxPoint x="692.5" y="796" as="sourcePoint" />
            <mxPoint x="829.5" y="809" as="targetPoint" />
          </mxGeometry>
        </mxCell>
        <mxCell id="-R-RzRMhOyg6fwqKeyZH-69" value="" style="endArrow=none;endFill=0;endSize=12;html=1;rounded=0;dashed=1;" parent="-R-RzRMhOyg6fwqKeyZH-8" source="-R-RzRMhOyg6fwqKeyZH-64" target="-R-RzRMhOyg6fwqKeyZH-66" edge="1">
          <mxGeometry width="160" relative="1" as="geometry">
            <mxPoint x="703.5" y="784" as="sourcePoint" />
            <mxPoint x="659.5" y="888" as="targetPoint" />
          </mxGeometry>
        </mxCell>
        <mxCell id="-R-RzRMhOyg6fwqKeyZH-70" value="Редактирование&amp;nbsp;&lt;br&gt;категорий грузов" style="ellipse;whiteSpace=wrap;html=1;fontSize=14;dashed=1;" parent="-R-RzRMhOyg6fwqKeyZH-8" vertex="1">
          <mxGeometry x="660" y="920" width="140" height="80" as="geometry" />
        </mxCell>
        <mxCell id="-R-RzRMhOyg6fwqKeyZH-71" value="" style="endArrow=none;endFill=0;endSize=12;html=1;rounded=0;dashed=1;" parent="-R-RzRMhOyg6fwqKeyZH-8" source="-R-RzRMhOyg6fwqKeyZH-64" target="-R-RzRMhOyg6fwqKeyZH-70" edge="1">
          <mxGeometry width="160" relative="1" as="geometry">
            <mxPoint x="743.5" y="839" as="sourcePoint" />
            <mxPoint x="663.5" y="843" as="targetPoint" />
          </mxGeometry>
        </mxCell>
        <mxCell id="-R-RzRMhOyg6fwqKeyZH-72" value="Редактирование&amp;nbsp;&lt;br&gt;Пунктов выдачи" style="ellipse;whiteSpace=wrap;html=1;fontSize=14;dashed=1;" parent="-R-RzRMhOyg6fwqKeyZH-8" vertex="1">
          <mxGeometry x="497" y="920" width="145" height="80" as="geometry" />
        </mxCell>
        <mxCell id="-R-RzRMhOyg6fwqKeyZH-73" value="" style="endArrow=none;endFill=0;endSize=12;html=1;rounded=0;dashed=1;" parent="-R-RzRMhOyg6fwqKeyZH-8" source="-R-RzRMhOyg6fwqKeyZH-64" target="-R-RzRMhOyg6fwqKeyZH-72" edge="1">
          <mxGeometry width="160" relative="1" as="geometry">
            <mxPoint x="706.5" y="828" as="sourcePoint" />
            <mxPoint x="749.5" y="880" as="targetPoint" />
          </mxGeometry>
        </mxCell>
        <mxCell id="-R-RzRMhOyg6fwqKeyZH-74" value="Редактирование&amp;nbsp;&lt;br&gt;Складов" style="ellipse;whiteSpace=wrap;html=1;fontSize=14;dashed=1;" parent="-R-RzRMhOyg6fwqKeyZH-8" vertex="1">
          <mxGeometry x="230" y="855" width="138.5" height="80" as="geometry" />
        </mxCell>
        <mxCell id="-R-RzRMhOyg6fwqKeyZH-75" value="" style="endArrow=none;endFill=0;endSize=12;html=1;rounded=0;dashed=1;" parent="-R-RzRMhOyg6fwqKeyZH-8" source="-R-RzRMhOyg6fwqKeyZH-64" target="-R-RzRMhOyg6fwqKeyZH-74" edge="1">
          <mxGeometry width="160" relative="1" as="geometry">
            <mxPoint x="692.5" y="813" as="sourcePoint" />
            <mxPoint x="494.5" y="836" as="targetPoint" />
          </mxGeometry>
        </mxCell>
        <mxCell id="-R-RzRMhOyg6fwqKeyZH-76" value="Работа с посылками" style="ellipse;whiteSpace=wrap;html=1;" parent="-R-RzRMhOyg6fwqKeyZH-8" vertex="1">
          <mxGeometry x="690" y="160" width="140" height="70" as="geometry" />
        </mxCell>
        <mxCell id="-R-RzRMhOyg6fwqKeyZH-78" value="Добавление Посылки" style="ellipse;whiteSpace=wrap;html=1;fontSize=14;dashed=1;" parent="-R-RzRMhOyg6fwqKeyZH-8" vertex="1">
          <mxGeometry x="470" y="90" width="140" height="70" as="geometry" />
        </mxCell>
        <mxCell id="-R-RzRMhOyg6fwqKeyZH-79" value="" style="endArrow=none;endFill=0;endSize=12;html=1;rounded=0;dashed=1;" parent="-R-RzRMhOyg6fwqKeyZH-8" source="-R-RzRMhOyg6fwqKeyZH-76" target="-R-RzRMhOyg6fwqKeyZH-78" edge="1">
          <mxGeometry width="160" relative="1" as="geometry">
            <mxPoint x="950" y="354" as="sourcePoint" />
            <mxPoint x="806" y="235" as="targetPoint" />
          </mxGeometry>
        </mxCell>
        <mxCell id="-R-RzRMhOyg6fwqKeyZH-80" value="Редактирование&lt;br&gt;Посылки" style="ellipse;whiteSpace=wrap;html=1;fontSize=14;dashed=1;" parent="-R-RzRMhOyg6fwqKeyZH-8" vertex="1">
          <mxGeometry x="660" y="55" width="140" height="70" as="geometry" />
        </mxCell>
        <mxCell id="-R-RzRMhOyg6fwqKeyZH-81" value="" style="endArrow=none;endFill=0;endSize=12;html=1;rounded=0;dashed=1;" parent="-R-RzRMhOyg6fwqKeyZH-8" source="-R-RzRMhOyg6fwqKeyZH-76" target="-R-RzRMhOyg6fwqKeyZH-80" edge="1">
          <mxGeometry width="160" relative="1" as="geometry">
            <mxPoint x="701" y="198" as="sourcePoint" />
            <mxPoint x="634" y="192" as="targetPoint" />
          </mxGeometry>
        </mxCell>
        <mxCell id="-R-RzRMhOyg6fwqKeyZH-82" value="Просмотр истории заявок" style="ellipse;whiteSpace=wrap;html=1;" parent="-R-RzRMhOyg6fwqKeyZH-8" vertex="1">
          <mxGeometry x="50" y="610" width="140" height="70" as="geometry" />
        </mxCell>
        <mxCell id="-R-RzRMhOyg6fwqKeyZH-85" value="Просмотр" style="ellipse;whiteSpace=wrap;html=1;" parent="-R-RzRMhOyg6fwqKeyZH-8" vertex="1">
          <mxGeometry x="50" y="300" width="140" height="70" as="geometry" />
        </mxCell>
        <mxCell id="-R-RzRMhOyg6fwqKeyZH-88" value="Просмотр контактной информации" style="ellipse;whiteSpace=wrap;html=1;fontSize=14;dashed=1;" parent="-R-RzRMhOyg6fwqKeyZH-8" vertex="1">
          <mxGeometry x="294" y="250" width="170" height="90" as="geometry" />
        </mxCell>
        <mxCell id="-R-RzRMhOyg6fwqKeyZH-89" value="" style="endArrow=none;endFill=0;endSize=12;html=1;rounded=0;dashed=1;" parent="-R-RzRMhOyg6fwqKeyZH-8" source="-R-RzRMhOyg6fwqKeyZH-88" target="-R-RzRMhOyg6fwqKeyZH-85" edge="1">
          <mxGeometry width="160" relative="1" as="geometry">
            <mxPoint x="662" y="574" as="sourcePoint" />
            <mxPoint x="490" y="600" as="targetPoint" />
          </mxGeometry>
        </mxCell>
        <mxCell id="-R-RzRMhOyg6fwqKeyZH-90" value="Просмотр услуг" style="ellipse;whiteSpace=wrap;html=1;fontSize=14;dashed=1;" parent="-R-RzRMhOyg6fwqKeyZH-8" vertex="1">
          <mxGeometry x="124" y="170" width="170" height="90" as="geometry" />
        </mxCell>
        <mxCell id="-R-RzRMhOyg6fwqKeyZH-91" value="" style="endArrow=none;endFill=0;endSize=12;html=1;rounded=0;dashed=1;" parent="-R-RzRMhOyg6fwqKeyZH-8" source="-R-RzRMhOyg6fwqKeyZH-90" target="-R-RzRMhOyg6fwqKeyZH-85" edge="1">
          <mxGeometry width="160" relative="1" as="geometry">
            <mxPoint x="191" y="370" as="sourcePoint" />
            <mxPoint x="133" y="407" as="targetPoint" />
          </mxGeometry>
        </mxCell>
        <mxCell id="iYatuqgSctIHSWTNbtxv-1" value="Изменение пароля" style="ellipse;whiteSpace=wrap;html=1;" vertex="1" parent="-R-RzRMhOyg6fwqKeyZH-8">
          <mxGeometry x="70" y="700" width="140" height="70" as="geometry" />
        </mxCell>
        <mxCell id="iYatuqgSctIHSWTNbtxv-3" value="Изменение Данных профиля" style="ellipse;whiteSpace=wrap;html=1;" vertex="1" parent="-R-RzRMhOyg6fwqKeyZH-8">
          <mxGeometry x="40" y="780" width="140" height="70" as="geometry" />
        </mxCell>
        <mxCell id="-R-RzRMhOyg6fwqKeyZH-41" value="" style="endArrow=open;endFill=1;endSize=12;html=1;rounded=0;" parent="1" source="-R-RzRMhOyg6fwqKeyZH-2" target="-R-RzRMhOyg6fwqKeyZH-40" edge="1">
          <mxGeometry width="160" relative="1" as="geometry">
            <mxPoint x="330" y="30" as="sourcePoint" />
            <mxPoint x="490" y="30" as="targetPoint" />
          </mxGeometry>
        </mxCell>
        <mxCell id="-R-RzRMhOyg6fwqKeyZH-42" value="" style="endArrow=open;endFill=1;endSize=12;html=1;rounded=0;" parent="1" source="-R-RzRMhOyg6fwqKeyZH-2" target="-R-RzRMhOyg6fwqKeyZH-39" edge="1">
          <mxGeometry width="160" relative="1" as="geometry">
            <mxPoint x="-70" y="206" as="sourcePoint" />
            <mxPoint x="384" y="82" as="targetPoint" />
          </mxGeometry>
        </mxCell>
        <mxCell id="-R-RzRMhOyg6fwqKeyZH-43" value="" style="endArrow=open;endFill=1;endSize=12;html=1;rounded=0;" parent="1" source="-R-RzRMhOyg6fwqKeyZH-4" target="-R-RzRMhOyg6fwqKeyZH-39" edge="1">
          <mxGeometry width="160" relative="1" as="geometry">
            <mxPoint x="-70" y="201" as="sourcePoint" />
            <mxPoint x="385" y="-12" as="targetPoint" />
          </mxGeometry>
        </mxCell>
        <mxCell id="-R-RzRMhOyg6fwqKeyZH-44" value="" style="endArrow=open;endFill=1;endSize=12;html=1;rounded=0;" parent="1" source="-R-RzRMhOyg6fwqKeyZH-4" target="-R-RzRMhOyg6fwqKeyZH-40" edge="1">
          <mxGeometry width="160" relative="1" as="geometry">
            <mxPoint x="1020" y="200" as="sourcePoint" />
            <mxPoint x="466" y="-14" as="targetPoint" />
          </mxGeometry>
        </mxCell>
        <mxCell id="-R-RzRMhOyg6fwqKeyZH-45" value="" style="endArrow=open;endFill=1;endSize=12;html=1;rounded=0;" parent="1" source="-R-RzRMhOyg6fwqKeyZH-3" target="-R-RzRMhOyg6fwqKeyZH-40" edge="1">
          <mxGeometry width="160" relative="1" as="geometry">
            <mxPoint x="1020" y="204" as="sourcePoint" />
            <mxPoint x="477" y="81" as="targetPoint" />
          </mxGeometry>
        </mxCell>
        <mxCell id="-R-RzRMhOyg6fwqKeyZH-46" value="" style="endArrow=open;endFill=1;endSize=12;html=1;rounded=0;" parent="1" source="-R-RzRMhOyg6fwqKeyZH-3" target="-R-RzRMhOyg6fwqKeyZH-39" edge="1">
          <mxGeometry width="160" relative="1" as="geometry">
            <mxPoint x="1020" y="36" as="sourcePoint" />
            <mxPoint x="480" y="67" as="targetPoint" />
          </mxGeometry>
        </mxCell>
        <mxCell id="-R-RzRMhOyg6fwqKeyZH-48" value="" style="endArrow=open;endFill=1;endSize=12;html=1;rounded=0;" parent="1" source="-R-RzRMhOyg6fwqKeyZH-1" target="-R-RzRMhOyg6fwqKeyZH-47" edge="1">
          <mxGeometry width="160" relative="1" as="geometry">
            <mxPoint x="-70" y="201" as="sourcePoint" />
            <mxPoint x="385" y="-12" as="targetPoint" />
          </mxGeometry>
        </mxCell>
        <mxCell id="-R-RzRMhOyg6fwqKeyZH-50" value="" style="endArrow=open;endFill=1;endSize=12;html=1;rounded=0;" parent="1" source="-R-RzRMhOyg6fwqKeyZH-2" target="-R-RzRMhOyg6fwqKeyZH-49" edge="1">
          <mxGeometry width="160" relative="1" as="geometry">
            <mxPoint x="-70" y="206" as="sourcePoint" />
            <mxPoint x="384" y="82" as="targetPoint" />
          </mxGeometry>
        </mxCell>
        <mxCell id="-R-RzRMhOyg6fwqKeyZH-52" value="" style="endArrow=open;endFill=1;endSize=12;html=1;rounded=0;" parent="1" source="-R-RzRMhOyg6fwqKeyZH-4" target="-R-RzRMhOyg6fwqKeyZH-51" edge="1">
          <mxGeometry width="160" relative="1" as="geometry">
            <mxPoint x="-45" y="13" as="sourcePoint" />
            <mxPoint x="100" y="-43" as="targetPoint" />
          </mxGeometry>
        </mxCell>
        <mxCell id="-R-RzRMhOyg6fwqKeyZH-65" value="" style="endArrow=open;endFill=1;endSize=12;html=1;rounded=0;" parent="1" source="-R-RzRMhOyg6fwqKeyZH-4" target="-R-RzRMhOyg6fwqKeyZH-64" edge="1">
          <mxGeometry width="160" relative="1" as="geometry">
            <mxPoint x="1020" y="213" as="sourcePoint" />
            <mxPoint x="889" y="228" as="targetPoint" />
          </mxGeometry>
        </mxCell>
        <mxCell id="-R-RzRMhOyg6fwqKeyZH-77" value="" style="endArrow=open;endFill=1;endSize=12;html=1;rounded=0;" parent="1" source="-R-RzRMhOyg6fwqKeyZH-3" target="-R-RzRMhOyg6fwqKeyZH-76" edge="1">
          <mxGeometry width="160" relative="1" as="geometry">
            <mxPoint x="1020" y="33" as="sourcePoint" />
            <mxPoint x="549" y="-4" as="targetPoint" />
          </mxGeometry>
        </mxCell>
        <mxCell id="-R-RzRMhOyg6fwqKeyZH-83" value="" style="endArrow=open;endFill=1;endSize=12;html=1;rounded=0;" parent="1" source="-R-RzRMhOyg6fwqKeyZH-2" target="-R-RzRMhOyg6fwqKeyZH-82" edge="1">
          <mxGeometry width="160" relative="1" as="geometry">
            <mxPoint x="20" y="393" as="sourcePoint" />
            <mxPoint x="155" y="422" as="targetPoint" />
          </mxGeometry>
        </mxCell>
        <mxCell id="-R-RzRMhOyg6fwqKeyZH-86" value="" style="endArrow=open;endFill=1;endSize=12;html=1;rounded=0;" parent="1" source="-R-RzRMhOyg6fwqKeyZH-2" target="-R-RzRMhOyg6fwqKeyZH-85" edge="1">
          <mxGeometry width="160" relative="1" as="geometry">
            <mxPoint x="20" y="398" as="sourcePoint" />
            <mxPoint x="176" y="463" as="targetPoint" />
          </mxGeometry>
        </mxCell>
        <mxCell id="-R-RzRMhOyg6fwqKeyZH-87" value="" style="endArrow=open;endFill=1;endSize=12;html=1;rounded=0;" parent="1" source="-R-RzRMhOyg6fwqKeyZH-1" target="-R-RzRMhOyg6fwqKeyZH-85" edge="1">
          <mxGeometry width="160" relative="1" as="geometry">
            <mxPoint x="20" y="383" as="sourcePoint" />
            <mxPoint x="234" y="342" as="targetPoint" />
          </mxGeometry>
        </mxCell>
        <mxCell id="iYatuqgSctIHSWTNbtxv-2" value="" style="endArrow=open;endFill=1;endSize=12;html=1;rounded=0;" edge="1" parent="1" source="-R-RzRMhOyg6fwqKeyZH-2" target="iYatuqgSctIHSWTNbtxv-1">
          <mxGeometry width="160" relative="1" as="geometry">
            <mxPoint x="20" y="179" as="sourcePoint" />
            <mxPoint x="203" y="279" as="targetPoint" />
          </mxGeometry>
        </mxCell>
        <mxCell id="iYatuqgSctIHSWTNbtxv-4" value="" style="endArrow=open;endFill=1;endSize=12;html=1;rounded=0;" edge="1" parent="1" source="-R-RzRMhOyg6fwqKeyZH-2" target="iYatuqgSctIHSWTNbtxv-3">
          <mxGeometry width="160" relative="1" as="geometry">
            <mxPoint x="20" y="186" as="sourcePoint" />
            <mxPoint x="234" y="365" as="targetPoint" />
          </mxGeometry>
        </mxCell>
      </root>
    </mxGraphModel>
  </diagram>
</mxfile>
